<svg xmlns="http://www.w3.org/2000/svg" width="34.237" height="22.825" viewBox="0 0 34.237 22.825"><path d="M30.671 0H3.566A3.571 3.571 0 000 3.567v15.692a3.571 3.571 0 003.566 3.566h27.1a3.571 3.571 0 003.566-3.566V3.567A3.571 3.571 0 0030.671 0zm2.14 19.259a2.142 2.142 0 01-2.14 2.14H3.566a2.142 2.142 0 01-2.14-2.14V3.567a2.142 2.142 0 012.14-2.14h27.1a2.142 2.142 0 012.14 2.14v15.692z" fill="#011156"/><path d="M31.259 3.164a.714.714 0 00-.991-.185l-11.7 8a2.554 2.554 0 01-2.9 0l-11.7-8a.713.713 0 10-.8 1.177l11.7 8a3.968 3.968 0 004.511 0l11.7-8a.713.713 0 00.18-.992zm-18.585 8.504a.717.717 0 00-1.006-.091l-8.562 7.132a.715.715 0 00.914 1.1l8.559-7.133a.715.715 0 00.095-1.008zm18.456 7.041l-8.559-7.133a.715.715 0 10-.914 1.1l8.559 7.133a.715.715 0 10.914-1.1z" fill="#f61017"/></svg>