<svg xmlns="http://www.w3.org/2000/svg" width="536.216" height="379.489" viewBox="0 0 536.216 379.489"><g opacity=".1"><path d="M66.985 212.135l-22.438-22.438 22.438-22.438-22.189-22.189-44.8 44.8 44.627 44.627zm49.09-138.34l-48.766 48.766 22.26 22.26-22.438 22.438 22.438 22.438-22.438 22.438 22.438 22.438-22.43 22.43 48.935 48.936 116.07-116.072z" fill="#f61017"/><path d="M380.935 188.893L192.161.85l-30.447 30.632 158.18 157.57-159.7 159.806 30.447 30.632 188.771-188.895-.084-.085z" fill="#011156" fill-rule="evenodd"/><path d="M536.216 188.043L347.445 0l-30.45 30.631 158.656 157.327-158.656 160.049 28.925 29.781 160.462-160.565z" fill="#f61017" fill-rule="evenodd"/></g></svg>