<svg xmlns="http://www.w3.org/2000/svg" width="21.412" height="34.237" viewBox="0 0 21.412 34.237"><path d="M10.706 16.401a5.612 5.612 0 10-5.613-5.612 5.619 5.619 0 005.613 5.612zm0-9.218A3.606 3.606 0 117.1 10.789a3.61 3.61 0 013.606-3.606z" fill="#f61017"/><path d="M4.595 20.872c1.52 2.058.91 1.258 5.288 7.51a1 1 0 001.645 0c4.4-6.282 3.794-5.486 5.289-7.511a25.522 25.522 0 003.94-6.657 10.362 10.362 0 00-1.512-10.023 10.793 10.793 0 00-17.078 0A10.362 10.362 0 00.655 14.214a25.518 25.518 0 003.94 6.658zM3.754 5.419a8.787 8.787 0 0113.9 0 8.414 8.414 0 011.2 8.141 24.033 24.033 0 01-3.657 6.12c-1.11 1.5-.778 1.043-4.5 6.375-3.716-5.327-3.388-4.873-4.5-6.375a24.035 24.035 0 01-3.657-6.12 8.414 8.414 0 011.2-8.141z" fill="#011156"/><path d="M5.419 25.221a1 1 0 00-1.384-.312l-2.852 1.8a1 1 0 000 1.7l8.987 5.676a1 1 0 001.071 0l8.987-5.676a1 1 0 000-1.7l-2.852-1.8a1.005 1.005 0 10-1.071 1.7l1.51.953-7.109 4.49-7.109-4.49 1.51-.953a1 1 0 00.312-1.388z" fill="#f61017"/></svg>