<svg xmlns="http://www.w3.org/2000/svg" width="31.637" height="31.684" viewBox="0 0 31.637 31.684"><path d="M25.017 19.627a3.116 3.116 0 00-2.26-1.036 3.222 3.222 0 00-2.287 1.03l-2.114 2.106c-.174-.094-.348-.181-.515-.267a8.466 8.466 0 01-.662-.354 22.967 22.967 0 01-5.5-5.015 13.549 13.549 0 01-1.805-2.849c.548-.5 1.057-1.023 1.551-1.525.187-.187.374-.381.562-.568a3.068 3.068 0 000-4.627l-1.831-1.827a28.677 28.677 0 01-.622-.635c-.4-.415-.823-.843-1.257-1.244a3.165 3.165 0 00-2.24-.983 3.276 3.276 0 00-2.274.983l-.007.011-2.277 2.3A4.892 4.892 0 00.028 8.232a11.722 11.722 0 00.856 4.962 28.792 28.792 0 005.115 8.533 31.468 31.468 0 0010.479 8.2 16.326 16.326 0 005.885 1.739c.14.007.288.013.421.013a5.039 5.039 0 003.858-1.652c.007-.013.02-.02.027-.033a15.2 15.2 0 011.17-1.21c.288-.274.582-.562.869-.863a3.336 3.336 0 001.01-2.314 3.214 3.214 0 00-1.03-2.294zm2.394 7.041c-.007 0-.007.007 0 0-.261.281-.528.535-.816.816a17.584 17.584 0 00-1.291 1.337 3.224 3.224 0 01-2.514 1.063c-.1 0-.207 0-.308-.007a14.5 14.5 0 01-5.216-1.565 29.7 29.7 0 01-9.87-7.73 27.148 27.148 0 01-4.815-8.018 9.548 9.548 0 01-.749-4.186 3.07 3.07 0 01.924-1.984l2.28-2.28a1.52 1.52 0 011.02-.475 1.43 1.43 0 01.976.468l.02.02c.408.381.8.776 1.2 1.2.207.214.421.428.635.649l1.826 1.826a1.276 1.276 0 010 2.073c-.194.194-.381.388-.575.575-.562.575-1.1 1.11-1.678 1.632-.013.013-.027.02-.033.033a1.364 1.364 0 00-.348 1.512l.02.06a14.656 14.656 0 002.16 3.524l.007.007a24.544 24.544 0 005.938 5.4 9.13 9.13 0 00.823.448c.241.12.468.234.662.354.027.013.053.033.08.047a1.45 1.45 0 00.662.167 1.43 1.43 0 001.016-.461l2.287-2.287a1.513 1.513 0 011.01-.5 1.362 1.362 0 01.963.488l.013.013 3.685 3.685a1.322 1.322 0 01.006 2.097z" fill="#011156"/><path d="M17.1 7.537a8.606 8.606 0 017.008 7.008.9.9 0 00.889.749 1.2 1.2 0 00.154-.013.9.9 0 00.742-1.043 10.406 10.406 0 00-8.48-8.48.907.907 0 00-1.043.736.893.893 0 00.73 1.043zm14.523 6.439A17.135 17.135 0 0017.661.014a.902.902 0 10-.294 1.779 15.305 15.305 0 0112.478 12.478.9.9 0 00.889.749 1.2 1.2 0 00.154-.013.886.886 0 00.735-1.031z" fill="#f61017"/></svg>