<svg xmlns="http://www.w3.org/2000/svg" width="34.237" height="22.825" viewBox="0 0 34.237 22.825"><g transform="translate(0 0)"><path d="M30.671,85.333H3.566A3.571,3.571,0,0,0,0,88.9v15.692a3.571,3.571,0,0,0,3.566,3.566h27.1a3.571,3.571,0,0,0,3.566-3.566V88.9A3.571,3.571,0,0,0,30.671,85.333Zm2.14,19.259a2.142,2.142,0,0,1-2.14,2.14H3.566a2.142,2.142,0,0,1-2.14-2.14V88.9a2.142,2.142,0,0,1,2.14-2.14h27.1a2.142,2.142,0,0,1,2.14,2.14v15.692Z" transform="translate(0 -85.333)" fill="#011156"/></g><g transform="translate(2.853 2.853)"><path d="M71.076,128.311a.714.714,0,0,0-.991-.185l-11.7,8a2.554,2.554,0,0,1-2.9,0l-11.7-8a.713.713,0,1,0-.8,1.177l11.7,8a3.968,3.968,0,0,0,4.511,0l11.7-8A.713.713,0,0,0,71.076,128.311Z" transform="translate(-42.67 -128)" fill="#f61017"/></g><g transform="translate(2.852 11.412)"><path d="M52.468,256.252a.717.717,0,0,0-1.006-.091L42.9,263.293a.714.714,0,0,0,.914,1.1l8.559-7.133A.715.715,0,0,0,52.468,256.252Z" transform="translate(-42.646 -255.996)" fill="#f61017"/></g><g transform="translate(21.399 11.412)"><path d="M329.732,263.292l-8.559-7.133a.714.714,0,1,0-.914,1.1l8.559,7.133a.714.714,0,1,0,.914-1.1Z" transform="translate(-320.001 -255.995)" fill="#f61017"/></g></svg>