<svg xmlns="http://www.w3.org/2000/svg" width="536.216" height="379.489" viewBox="0 0 536.216 379.489"><g transform="translate(-320.992 -763.852)" opacity="0.1"><g transform="translate(320.992 837.647)"><path d="M387.977,923.112l-22.438-22.438,22.438-22.438-22.189-22.189-44.8,44.8,44.627,44.627Z" transform="translate(-320.992 -784.772)" fill="#f61017"/><path d="M412.6,810.75l-48.766,48.766,22.26,22.26-22.438,22.438,22.438,22.438-22.438,22.438,22.438,22.438-22.43,22.43,48.935,48.936L528.669,926.822Z" transform="translate(-296.525 -810.75)" fill="#f61017"/></g><path d="M643.541,952.435,454.767,764.392,424.32,795.024,582.5,952.594,422.8,1112.4l30.447,30.632L642.018,954.137l-.084-.085Z" transform="translate(58.386 0.31)" fill="#011156" fill-rule="evenodd"/><path d="M741.671,951.895,552.9,763.852,522.45,794.483,681.106,951.81,522.45,1111.859l28.925,29.781L711.837,981.075Z" transform="translate(115.537)" fill="#f61017" fill-rule="evenodd"/></g></svg>