<svg xmlns="http://www.w3.org/2000/svg" width="21.412" height="34.237" viewBox="0 0 21.412 34.237"><path d="M177.681,88.637a5.612,5.612,0,1,0-5.613-5.612A5.619,5.619,0,0,0,177.681,88.637Zm0-9.218a3.606,3.606,0,1,1-3.606,3.606A3.61,3.61,0,0,1,177.681,79.419Z" transform="translate(-166.975 -72.236)" fill="#f61017"/><path d="M100.493,20.872c1.52,2.058.91,1.258,5.288,7.51a1,1,0,0,0,1.645,0c4.4-6.282,3.794-5.486,5.289-7.511a25.522,25.522,0,0,0,3.94-6.657,10.362,10.362,0,0,0-1.512-10.023h0a10.793,10.793,0,0,0-17.078,0,10.362,10.362,0,0,0-1.512,10.023A25.518,25.518,0,0,0,100.493,20.872ZM99.652,5.419a8.787,8.787,0,0,1,13.9,0h0a8.414,8.414,0,0,1,1.2,8.141,24.033,24.033,0,0,1-3.657,6.12c-1.11,1.5-.778,1.043-4.5,6.375-3.716-5.327-3.388-4.873-4.5-6.375a24.035,24.035,0,0,1-3.657-6.12,8.414,8.414,0,0,1,1.2-8.141Z" transform="translate(-95.898 0)" fill="#011156"/><path d="M111.311,370.644a1,1,0,0,0-1.384-.312l-2.852,1.8a1,1,0,0,0,0,1.7l8.987,5.676a1,1,0,0,0,1.071,0l8.987-5.676a1,1,0,0,0,0-1.7l-2.852-1.8a1,1,0,1,0-1.071,1.7l1.51.953-7.109,4.49-7.109-4.49,1.51-.953A1,1,0,0,0,111.311,370.644Z" transform="translate(-105.892 -345.423)" fill="#f61017"/></svg>